<svg width="960" height="640" viewBox="0 0 960 640" fill="none" xmlns="http://www.w3.org/2000/svg">
  <defs>
    <linearGradient id="nvFrame" x1="126" y1="64" x2="830" y2="560" gradientUnits="userSpaceOnUse">
      <stop stop-color="#5F68F6"/>
      <stop offset="0.52" stop-color="#2557F4"/>
      <stop offset="1" stop-color="#00A595"/>
    </linearGradient>
    <linearGradient id="nvGlass" x1="171" y1="112" x2="790" y2="520" gradientUnits="userSpaceOnUse">
      <stop stop-color="#F9FBFF" stop-opacity="0.98"/>
      <stop offset="1" stop-color="#DDE8FF" stop-opacity="0.88"/>
    </linearGradient>
    <linearGradient id="nvScreen" x1="0" y1="0" x2="1" y2="1">
      <stop stop-color="#EEF3FF"/>
      <stop offset="1" stop-color="#D7E5FF"/>
    </linearGradient>
    <linearGradient id="nvAccent" x1="0" y1="0" x2="1" y2="1">
      <stop stop-color="#2557F4"/>
      <stop offset="1" stop-color="#00A595"/>
    </linearGradient>
    <linearGradient id="nvPlaceholder" x1="0" y1="0" x2="1" y2="1">
      <stop stop-color="#EDF3FF"/>
      <stop offset="1" stop-color="#D7E5FF"/>
    </linearGradient>
    <clipPath id="phoneScreenClip">
      <rect x="106" y="204" width="108" height="252" rx="18"/>
    </clipPath>
    <clipPath id="desktopScreenClip">
      <rect x="238" y="50" width="484" height="296" rx="22"/>
    </clipPath>
    <clipPath id="linuxScreenClip">
      <rect x="724" y="252" width="144" height="196" rx="24"/>
    </clipPath>
  </defs>

  <rect x="222" y="34" width="516" height="328" rx="32" fill="#101C32"/>
  <rect x="238" y="50" width="484" height="296" rx="22" fill="url(#nvScreen)"/>
  <g clip-path="url(#desktopScreenClip)">
    <rect x="238" y="50" width="484" height="296" fill="url(#nvPlaceholder)"/>
    <image href="screenshots/windows-home.png" x="238" y="50" width="484" height="296" preserveAspectRatio="xMidYMid slice"/>
    <rect x="276" y="88" width="408" height="220" rx="30" fill="#FFFFFF" fill-opacity="0.56"/>
    <rect x="302" y="114" width="184" height="150" rx="28" fill="url(#nvAccent)" fill-opacity="0.12"/>
    <path d="M394 132L438 148V198C438 231.2 418.8 258.2 394 268C369.2 258.2 350 231.2 350 198V148L394 132Z" fill="#FFFFFF" fill-opacity="0.92"/>
    <rect x="514" y="120" width="126" height="22" rx="11" fill="#ADC2F7"/>
    <rect x="514" y="156" width="104" height="18" rx="9" fill="#C3D2F9"/>
    <rect x="514" y="188" width="88" height="18" rx="9" fill="#D5E0FB"/>
    <rect x="514" y="226" width="146" height="50" rx="20" fill="#FFFFFF" fill-opacity="0.7"/>
    <text x="480" y="326" text-anchor="middle" font-family="Manrope, Arial, sans-serif" font-size="18" font-weight="700" fill="#41506F">Windows</text>
  </g>

  <rect x="434" y="362" width="92" height="16" rx="8" fill="#34425F"/>
  <path d="M286 390H674L710 546H250L286 390Z" fill="#CFDBF8"/>
  <path d="M312 412H648L672 520H288L312 412Z" fill="#F6F9FF"/>

  <rect x="84" y="178" width="152" height="308" rx="30" fill="url(#nvFrame)"/>
  <rect x="96" y="190" width="128" height="284" rx="22" fill="#0E1830"/>
  <g clip-path="url(#phoneScreenClip)">
    <rect x="106" y="204" width="108" height="252" fill="url(#nvGlass)"/>
    <image href="screenshots/android-home.png" x="106" y="204" width="108" height="252" preserveAspectRatio="xMidYMid slice"/>
    <rect x="122" y="226" width="76" height="120" rx="22" fill="#FFFFFF" fill-opacity="0.54"/>
    <path d="M160 242L186 252V284C186 304.6 174.2 320.8 160 327C145.8 320.8 134 304.6 134 284V252L160 242Z" fill="#2557F4"/>
    <rect x="126" y="366" width="68" height="10" rx="5" fill="#B6C7F8"/>
    <rect x="126" y="386" width="80" height="9" rx="4.5" fill="#D3DFFA"/>
    <text x="160" y="428" text-anchor="middle" font-family="Manrope, Arial, sans-serif" font-size="14" font-weight="700" fill="#41506F">Android</text>
  </g>

  <rect x="708" y="236" width="176" height="228" rx="34" fill="#13213A"/>
  <g clip-path="url(#linuxScreenClip)">
    <rect x="724" y="252" width="144" height="196" fill="url(#nvGlass)"/>
    <image href="screenshots/linux-home.png" x="724" y="252" width="144" height="196" preserveAspectRatio="xMidYMid slice"/>
    <rect x="744" y="278" width="104" height="126" rx="24" fill="#FFFFFF" fill-opacity="0.54"/>
    <path d="M796 294L828 306V342C828 367.2 813.4 387.8 796 395C778.6 387.8 764 367.2 764 342V306L796 294Z" fill="#00A595"/>
    <rect x="754" y="414" width="84" height="10" rx="5" fill="#BEDAF6"/>
    <text x="796" y="432" text-anchor="middle" font-family="Manrope, Arial, sans-serif" font-size="14" font-weight="700" fill="#41506F">Linux</text>
  </g>

  <circle cx="178" cy="112" r="18" fill="#00A595" fill-opacity="0.18"/>
  <circle cx="746" cy="134" r="14" fill="#2557F4" fill-opacity="0.18"/>
  <circle cx="812" cy="520" r="22" fill="#5F68F6" fill-opacity="0.18"/>
</svg>
