<svg viewBox="0 0 108 108" height="108" width="108" xmlns="http://www.w3.org/2000/svg">
  <path d="M0,0h108v108h-108z" fill="#081621"></path>
  <path d="M0,0h108v58c-12.8,9.2 -28.4,14.1 -46.8,14.1C34.6,72.1 14.2,62.6 0,45.9V0z" fill-opacity="0.94" fill="#0F3248"></path>
  <path d="M84,22m-25,0a25,25 0,1 1,50 0a25,25 0,1 1,-50 0" fill-opacity="0.24" fill="#1FC4B7"></path>
  <path d="M20,92m-20,0a20,20 0,1 1,40 0a20,20 0,1 1,-40 0" fill-opacity="0.16" fill="#4AE3D5"></path>
  <path d="M93,83m-16,0a16,16 0,1 1,32 0a16,16 0,1 1,-32 0" fill-opacity="0.20" fill="#FFC874"></path>
  <path d="M13,24h34v3H13zM59,31h27v3H59zM31,72h49v3H31zM18,59h18v3H18z" fill-opacity="0.09" fill="#FFFFFF"></path>
</svg>
